<?xml version="1.0" encoding="iso-8859-1"?>
<!-- Generator: Adobe Illustrator 19.0.0, SVG Export Plug-In . SVG Version: 6.00 Build 0)  -->
<svg version="1.1" id="Capa_1" xmlns="http://www.w3.org/2000/svg" xmlns:xlink="http://www.w3.org/1999/xlink" x="0px" y="0px"
	 viewBox="0 0 512.002 512.002" style="enable-background:new 0 0 512.002 512.002;" xml:space="preserve">
<path style="fill:#5BDDFC;" d="M464.149,353.731l-36.55-21.102l27.653-11.783c9.843-4.193,14.422-15.573,10.229-25.415
	c-4.194-9.841-15.571-14.419-25.415-10.228l-54.436,23.193l-67.161-38.775c0.966-4.41,1.489-8.984,1.489-13.68
	c0-4.696-0.523-9.27-1.489-13.68l67.161-38.775l54.436,23.193c9.843,4.193,21.221-0.387,25.415-10.228
	c4.193-9.842-0.386-21.221-10.229-25.415l-27.653-11.783l36.55-21.102c9.265-5.348,12.44-17.196,7.09-26.462
	c-5.349-9.266-17.196-12.443-26.462-7.09l-36.55,21.102l3.623-29.841c1.289-10.62-6.274-20.275-16.895-21.564
	c-10.623-1.293-20.275,6.274-21.565,16.896l-7.131,58.741l-67.183,38.787c-6.734-6.144-14.785-10.866-23.672-13.698V117.48
	l47.304-35.547c8.554-6.426,10.277-18.57,3.849-27.124c-6.426-8.552-18.568-10.274-27.123-3.85l-24.031,18.058V26.814
	c0-10.699-8.673-19.371-19.371-19.371c-10.699,0-19.371,8.673-19.371,19.371v42.206l-24.031-18.058
	c-8.554-6.428-20.696-4.703-27.123,3.85c-6.426,8.554-4.703,20.696,3.849,27.124l47.305,35.546v77.546
	c-8.887,2.832-16.937,7.553-23.672,13.698l-67.182-38.787l-7.131-58.741c-1.289-10.62-10.945-18.187-21.565-16.896
	c-10.62,1.289-18.184,10.945-16.895,21.564l3.623,29.841l-36.551-21.102c-9.266-5.352-21.113-2.173-26.462,7.09
	c-5.349,9.266-2.175,21.113,7.09,26.462l36.55,21.102l-27.653,11.783c-9.843,4.193-14.422,15.571-10.229,25.415
	c3.138,7.365,10.3,11.783,17.83,11.783c5.247,0,2.347,0.676,62.021-24.748l67.162,38.775c-1.981,9.048-1.989,18.274,0,27.359
	l-67.161,38.775l-54.437-23.193c-9.842-4.193-21.22,0.385-25.414,10.228c-4.193,9.844,0.386,21.221,10.229,25.415l27.653,11.783
	l-36.55,21.101c-17.129,9.889-9.999,36.151,9.704,36.151c3.286,0,6.617-0.837,9.668-2.599l36.551-21.102l-3.623,29.841
	c-1.394,11.481,7.543,21.708,19.254,21.708c9.656,0,18.012-7.211,19.205-17.039l7.131-58.741l67.183-38.787
	c6.734,6.144,14.785,10.866,23.671,13.698v77.546l-47.305,35.546c-8.554,6.426-10.277,18.57-3.849,27.124
	c6.426,8.555,18.57,10.276,27.123,3.85l24.031-18.058v42.205c0,10.699,8.673,19.371,19.371,19.371
	c10.699,0,19.371-8.673,19.371-19.371v-42.205l24.031,18.058c8.551,6.426,20.696,4.703,27.123-3.85
	c6.426-8.554,4.703-20.696-3.849-27.124l-47.304-35.547v-77.545c8.887-2.832,16.937-7.553,23.672-13.698l67.183,38.787l7.131,58.741
	c1.285,10.59,10.905,18.185,21.565,16.896c10.62-1.289,18.184-10.945,16.895-21.564l-3.623-29.841l36.55,21.102
	c9.268,5.352,21.114,2.172,26.462-7.09C476.588,370.926,473.413,359.08,464.149,353.731z M230.85,255.943
	c0-13.885,11.297-25.183,25.183-25.183c13.886,0,25.183,11.298,25.183,25.183c0,13.885-11.297,25.183-25.183,25.183
	C242.146,281.125,230.85,269.828,230.85,255.943z"/>
<g>
	<path style="fill:#00C3FF;" d="M275.403,78.101c0,2.624,2.995,4.122,5.094,2.548c43.178-32.366,39.719-29.816,40.905-30.566
		c-6.604-4.166-15.354-4.089-21.969,0.878l-24.031,18.058v9.082H275.403z"/>
	<path style="fill:#00C3FF;" d="M135.666,199.862l-9.232,3.625l67.162,38.775c-1.985,9.064-1.986,18.292,0,27.359l-67.161,38.775
		l10.954,4.234c0.98,0.379,2.078,0.293,2.987-0.233l69.417-40.195c2.602-1.502,4.022-4.432,3.603-7.408
		c-0.853-6.057-0.829-12.162,0.075-18.224c0.396-2.657-0.898-5.28-3.227-6.62l-68.983-39.675
		C139.556,199.295,137.497,199.143,135.666,199.862z"/>
	<path style="fill:#00C3FF;" d="M252.503,79.519c2.066,1.369,4.825-0.112,4.825-2.591V26.814c0-6.894,3.613-12.932,9.038-16.365
		c-13.12-8.303-29.705,1.443-29.705,16.838v41.733L252.503,79.519z"/>
	<path style="fill:#00C3FF;" d="M281.931,432.158c-2.685-2.024-6.527-0.108-6.527,3.254v7.454l24.031,18.058
		c6.592,4.954,15.342,5.078,21.972,0.898C320.327,461.141,280.931,431.404,281.931,432.158z"/>
	<path style="fill:#00C3FF;" d="M257.329,485.07v-45.124c0-4.592-5.106-7.341-8.94-4.813l-11.728,7.733v41.732
		c0,15.407,16.594,25.135,29.705,16.838C260.942,498.002,257.329,491.965,257.329,485.07z"/>
	<path style="fill:#00C3FF;" d="M47.916,158.155l36.55,21.102l-27.217,11.596c-9.723,4.142-14.747,15.267-10.872,25.099
		c3.022,7.666,10.336,12.285,18.036,12.285c4.469,0,7.113-1.355,10.594-2.837c-13.421-8.151-12.037-28.179,2.472-34.36l20.376-8.682
		c2.996-1.277,3.247-5.426,0.427-7.055l-29.7-17.147c-12.594-7.27-12.99-25.401-0.629-33.166l-0.269-0.155
		c-9.097-5.25-20.927-2.649-26.498,6.255C35.34,140.438,38.448,152.689,47.916,158.155z"/>
	<path style="fill:#00C3FF;" d="M68.583,353.731l31.383-18.119c2.127-1.228,1.938-4.358-0.322-5.321l-22.164-9.444
		c-14.511-6.182-15.892-26.207-2.465-34.357l-2.591-1.104c-9.664-4.117-21.095-0.108-25.552,9.403
		c-4.679,9.986-0.117,21.773,9.941,26.059l27.654,11.783l-36.55,21.101c-17.129,9.889-9.999,36.151,9.704,36.151
		c3.286,0,6.617-0.837,9.668-2.599l0.666-0.385C55.625,379.153,55.963,361.017,68.583,353.731z"/>
	<path style="fill:#00C3FF;" d="M120.882,396.021l4.859-37.668c0.283-2.191-2.074-3.753-3.982-2.639l-17.922,10.466l-3.57,29.407
		c-1.974,16.256,15.597,27.943,29.517,19.136C123.656,410.849,119.95,403.695,120.882,396.021z"/>
	<path style="fill:#00C3FF;" d="M103.838,145.706l11.896,6.955c4.325,2.529,9.672-1.002,9.044-5.972l-3.894-30.824
		c-0.932-7.678,2.777-14.834,8.91-18.706c-3.642-2.305-8.07-3.419-12.683-2.858c-10.62,1.289-18.184,10.945-16.895,21.564
		L103.838,145.706z"/>
	<path style="fill:#00C3FF;" d="M236.661,195.027c-0.972,0.31-1.929,0.651-2.88,1.006c-0.226,0.084-0.453,0.166-0.677,0.253
		c-7.48,2.884-14.292,7.126-20.115,12.439l0,0l10.065,5.715c1.294,0.735,2.924,0.468,3.92-0.639
		c10.455-11.622,23.967-16.973,28.577-18.309c1.057-0.306,1.779-1.271,1.779-2.372v-68.893c0-4.246-1.997-8.246-5.392-10.798
		l-41.484-31.172c-7.582-5.697-10.349-16.045-6.089-24.519c1.679-3.342,4.135-5.869,6.965-7.655
		c-9.283-5.874-21.744-2.873-27.234,6.936c-4.667,8.415-2.258,19.266,5.639,25.201l46.928,35.263v77.545H236.661z"/>
	<path style="fill:#00C3FF;" d="M236.661,316.868c-0.972-0.31-1.929-0.651-2.88-1.006c-0.226-0.084-0.453-0.166-0.677-0.253
		c-7.48-2.884-14.292-7.126-20.115-12.439l0,0l10.065-5.715c1.294-0.735,2.924-0.468,3.92,0.639
		c10.455,11.622,23.967,16.973,28.577,18.309c1.057,0.306,1.779,1.271,1.779,2.372v68.893c0,4.246-1.997,8.247-5.392,10.798
		l-41.484,31.172c-7.582,5.697-10.349,16.045-6.089,24.519c1.679,3.342,4.135,5.869,6.965,7.655
		c-9.294,5.881-21.754,2.855-27.234-6.936c-4.667-8.415-2.258-19.266,5.639-25.201l46.928-35.263v-77.545H236.661z"/>
</g>
<path d="M34.298,128.002c-7.425,12.861-3.029,29.281,9.836,36.706l23.543,13.593l-13.837,5.896
	c-13.632,5.808-19.996,21.623-14.189,35.254c5.828,13.68,21.614,20.003,35.253,14.189l50.992-21.725l59.361,34.273
	c-0.884,6.348-0.938,12.894,0.001,19.627l-59.362,34.273l-50.991-21.725c-13.659-5.821-29.431,0.516-35.254,14.188
	c-5.821,13.664,0.521,29.433,14.188,35.254l13.838,5.896l-23.543,13.593c-12.831,7.407-17.243,23.874-9.836,36.707
	c7.373,12.773,23.808,17.285,36.707,9.836l23.544-13.594l-1.813,14.932c-0.865,7.125,1.096,14.161,5.522,19.812
	c14.737,18.811,44.953,10.365,47.828-13.334l6.681-55.023l59.386-34.286c5.177,4.026,10.922,7.35,16.975,9.824v68.55l-44.311,33.296
	c-11.846,8.9-14.242,25.778-5.341,37.624c8.922,11.877,25.748,14.261,37.625,5.342l12.026-9.038v27.188
	c0,14.817,12.055,26.872,26.871,26.872c14.817,0,26.872-12.055,26.872-26.872v-27.187l12.025,9.036
	c11.981,9.006,28.815,6.388,37.625-5.34c8.923-11.875,6.534-28.702-5.34-37.625l-44.311-33.296v-68.55
	c6.053-2.474,11.798-5.797,16.975-9.824l59.386,34.286l6.681,55.022c2.887,23.798,33.165,32.051,47.828,13.335
	c4.427-5.65,6.388-12.687,5.522-19.812l-1.813-14.932l23.542,13.593c12.839,7.417,29.302,2.995,36.708-9.835
	c7.408-12.832,2.997-29.299-9.835-36.707l-23.544-13.593l13.837-5.896c13.666-5.823,20.011-21.59,14.189-35.256
	c-5.808-13.626-21.617-19.99-35.254-14.187l-50.99,21.725l-59.362-34.273c0.895-6.417,0.929-12.965,0-19.628l13.948-8.052
	c3.587-2.071,4.816-6.658,2.745-10.246c-2.071-3.588-6.66-4.814-10.246-2.745l-18.503,10.683c-2.828,1.633-4.275,4.909-3.576,8.1
	c1.753,8.002,1.753,16.144,0,24.149c-0.699,3.19,0.747,6.467,3.576,8.1l67.161,38.775c2.042,1.179,4.521,1.329,6.689,0.404
	l54.434-23.192c6.024-2.563,13.012,0.247,15.577,6.266c2.57,6.036-0.23,13.003-6.269,15.575l-27.653,11.783
	c-5.675,2.417-6.158,10.307-0.81,13.396l36.55,21.102c5.668,3.272,7.616,10.548,4.344,16.216
	c-3.206,5.552-10.427,7.688-16.215,4.345l-36.548-21.104c-5.349-3.091-11.94,1.28-11.196,7.399l3.623,29.841
	c0.383,3.147-0.484,6.255-2.439,8.752s-4.766,4.081-7.908,4.462c-6.579,0.809-12.439-3.923-13.221-10.354l-7.132-58.741
	c-0.284-2.341-1.653-4.412-3.695-5.591l-67.183-38.787c-2.829-1.633-6.39-1.247-8.806,0.954
	c-5.988,5.464-13.215,9.646-20.895,12.094c-3.11,0.991-5.223,3.881-5.223,7.146v77.545c0,2.358,1.109,4.579,2.994,5.996
	l47.306,35.547c5.243,3.94,6.302,11.375,2.357,16.621c-3.973,5.29-11.413,6.273-16.619,2.359l-24.031-18.059
	c-4.95-3.717-12.007-0.158-12.007,5.996v42.205c0,6.545-5.325,11.871-11.871,11.871s-11.87-5.325-11.87-11.871v-42.205
	c0-6.177-7.077-9.702-12.007-5.996l-24.031,18.059c-8.49,6.371-20.357-0.774-18.884-11.16c0.445-3.139,2.087-5.916,4.622-7.82
	l47.306-35.546c1.885-1.417,2.994-3.638,2.994-5.996v-77.546c0-3.265-2.112-6.154-5.223-7.146
	c-7.68-2.448-14.906-6.629-20.895-12.094c-2.415-2.202-5.975-2.588-8.806-0.954l-67.183,38.787c-2.042,1.179-3.411,3.25-3.695,5.591
	l-7.132,58.742c-0.78,6.428-6.622,11.147-13.216,10.354c-6.51-0.79-11.145-6.701-10.353-13.215l3.623-29.841
	c0.744-6.124-5.846-10.488-11.196-7.399l-36.55,21.103c-5.78,3.34-13.005,1.213-16.215-4.345
	c-3.272-5.668-1.323-12.943,4.345-16.216l36.549-21.102c5.34-3.083,4.873-10.976-0.81-13.396l-27.654-11.784
	c-6.036-2.571-8.839-9.536-6.268-15.574c2.573-6.036,9.536-8.838,15.574-6.267l54.438,23.193c2.167,0.924,4.646,0.774,6.689-0.404
	l67.161-38.775c2.829-1.633,4.275-4.909,3.576-8.1c-1.752-8-1.754-16.143,0-24.148c0.699-3.19-0.747-6.467-3.576-8.1l-67.161-38.775
	c-2.041-1.179-4.52-1.328-6.689-0.404l-54.438,23.193c-6.077,2.585-13.016-0.265-15.573-6.268
	c-2.566-6.021,0.246-13.009,6.267-15.575l27.653-11.782c5.684-2.422,6.15-10.313,0.811-13.396l-36.549-21.103
	c-5.682-3.279-7.625-10.532-4.345-16.215c3.278-5.68,10.533-7.628,16.216-4.345l36.551,21.103
	c5.361,3.094,11.938-1.291,11.196-7.399l-3.623-29.842c-0.792-6.511,3.838-12.424,10.355-13.214
	c6.495-0.792,12.422,3.825,13.214,10.354l7.132,58.741c0.284,2.341,1.653,4.412,3.695,5.591l67.183,38.787
	c2.831,1.634,6.391,1.248,8.806-0.954c5.987-5.462,13.213-9.645,20.896-12.094c3.11-0.991,5.222-3.881,5.222-7.146v-77.545
	c0-2.358-1.109-4.579-2.994-5.996l-47.306-35.546c-5.232-3.932-6.291-11.389-2.359-16.622c3.94-5.245,11.376-6.302,16.62-2.359
	l24.032,18.058c4.94,3.709,12.007,0.172,12.007-5.996V26.872c0-6.545,5.324-11.871,11.87-11.871s11.871,5.325,11.871,11.871v42.206
	c0,6.177,7.076,9.702,12.007,5.996l24.028-18.057c5.235-3.93,12.693-2.872,16.623,2.358c3.933,5.233,2.874,12.69-2.359,16.622
	l-47.305,35.546c-1.885,1.417-2.994,3.638-2.994,5.996v23.177c0,4.142,3.357,7.5,7.5,7.5s7.5-3.358,7.5-7.5v-19.431l44.311-33.296
	c11.846-8.902,14.241-25.781,5.339-37.626c-8.897-11.84-25.774-14.238-37.624-5.34l-12.025,9.037V26.872
	C282.874,12.055,270.819,0,256.002,0c-14.816,0-26.871,12.055-26.871,26.872v27.188l-12.029-9.037
	c-11.876-8.924-28.703-6.534-37.625,5.341c-8.9,11.846-6.504,28.725,5.34,37.625l44.312,33.295v68.55
	c-6.054,2.473-11.798,5.797-16.974,9.824l-59.387-34.287l-6.681-55.02c-1.79-14.763-15.2-25.239-29.914-23.438
	c-14.743,1.788-25.228,15.169-23.437,29.914l1.813,14.933l-23.543-13.593C58.149,110.738,41.724,115.135,34.298,128.002z"/>
<path d="M395.83,86.912c-14.747-1.796-28.127,8.692-29.917,23.437l-6.681,55.021l-59.387,34.287
	c-5.176-4.025-10.92-7.35-16.974-9.824v-14.116c0-4.142-3.357-7.5-7.5-7.5s-7.5,3.358-7.5,7.5v19.365
	c0,3.265,2.111,6.154,5.222,7.146c7.684,2.449,14.908,6.631,20.896,12.094c2.413,2.2,5.973,2.588,8.806,0.954l67.183-38.787
	c2.042-1.179,3.411-3.25,3.695-5.591l7.132-58.741c0.784-6.467,6.643-11.147,13.216-10.354c6.51,0.79,11.145,6.7,10.353,13.215
	l-3.623,29.841c-0.343,2.821,0.939,5.594,3.31,7.161c2.371,1.568,5.425,1.659,7.886,0.238l36.553-21.103
	c5.68-3.281,12.931-1.338,16.213,4.346c3.281,5.682,1.338,12.935-4.344,16.215l-36.55,21.102c-2.461,1.421-3.908,4.111-3.736,6.948
	c0.172,2.837,1.932,5.333,4.547,6.447l27.653,11.782c6.021,2.566,8.834,9.554,6.268,15.575c-2.563,6.012-9.508,8.85-15.575,6.268
	l-54.436-23.193c-2.166-0.923-4.646-0.775-6.689,0.404l-18.346,10.592c-3.587,2.071-4.816,6.658-2.745,10.246
	c2.07,3.588,6.659,4.814,10.246,2.745l15.102-8.719l50.992,21.726c13.631,5.804,29.417-0.493,35.252-14.189
	c5.808-13.631-0.557-29.447-14.189-35.254l-13.837-5.895l23.544-13.594c12.862-7.426,17.262-23.843,9.835-36.706
	c-7.424-12.863-23.844-17.265-36.706-9.836l-23.544,13.593l1.813-14.932C421.053,102.086,410.575,88.701,395.83,86.912z"/>
<path d="M223.317,256c0,18.022,14.661,32.684,32.683,32.684s32.684-14.662,32.684-32.684S274.022,223.318,256,223.318
	C237.978,223.318,223.317,237.978,223.317,256z M273.682,256c0,9.751-7.932,17.683-17.683,17.683
	c-9.75,0-17.682-7.932-17.682-17.683c0-9.75,7.932-17.682,17.682-17.682C265.75,238.318,273.682,246.251,273.682,256z"/>
<g>
</g>
<g>
</g>
<g>
</g>
<g>
</g>
<g>
</g>
<g>
</g>
<g>
</g>
<g>
</g>
<g>
</g>
<g>
</g>
<g>
</g>
<g>
</g>
<g>
</g>
<g>
</g>
<g>
</g>
</svg>
